<?xml version="1.0" standalone="no"?>
<!DOCTYPE svg PUBLIC "-//W3C//DTD SVG 20010904//EN"
 "http://www.w3.org/TR/2001/REC-SVG-20010904/DTD/svg10.dtd">
<svg version="1.0" xmlns="http://www.w3.org/2000/svg"
 width="1024.000000pt" height="1024.000000pt" viewBox="0 0 1024.000000 1024.000000"
 preserveAspectRatio="xMidYMid meet">
<metadata>
Created by potrace 1.11, written by Peter Selinger 2001-2013
</metadata>
<g transform="translate(0.000000,1024.000000) scale(0.100000,-0.100000)"
fill="#000000" stroke="none">
<path d="M9015 7580 c-58 -12 -142 -46 -200 -79 -108 -62 -302 -255 -349 -348
-10 -19 -16 -56 -16 -94 0 -58 2 -63 39 -100 l39 -39 99 0 100 0 74 57 c132
101 277 154 349 128 79 -28 101 -45 126 -98 44 -95 25 -278 -52 -498 -47 -137
-180 -410 -284 -584 -97 -163 -300 -452 -406 -577 -98 -116 -114 -143 -114
-198 0 -41 5 -50 45 -90 l46 -45 639 -2 638 -3 59 49 c63 53 72 67 217 335
115 213 119 235 57 297 l-39 39 -110 0 -110 0 -83 -76 c-48 -44 -106 -87 -138
-101 -53 -25 -68 -26 -260 -31 l-204 -4 60 78 c303 402 569 857 670 1149 l38
110 0 165 0 165 -33 69 c-43 91 -158 206 -257 258 -124 64 -157 70 -390 74
-115 2 -228 -1 -250 -6z"/>
<path d="M900 6940 c-725 -6 -670 0 -748 -84 -38 -41 -42 -50 -42 -97 0 -50 2
-54 58 -109 56 -57 59 -58 157 -79 171 -37 187 -41 214 -61 15 -10 39 -41 54
-69 58 -106 57 -62 57 -1566 0 -884 -4 -1403 -10 -1445 -13 -82 -70 -202 -104
-218 -13 -6 -53 -16 -88 -22 -115 -20 -152 -37 -207 -95 -51 -54 -51 -54 -51
-120 0 -64 1 -67 46 -115 25 -27 62 -54 82 -61 27 -9 118 -9 396 1 311 10 402
10 661 -4 345 -18 588 -21 616 -6 44 24 98 95 105 137 9 59 0 87 -44 135 -50
55 -93 73 -257 103 -77 14 -154 30 -172 36 -57 18 -107 64 -141 126 -58 109
-61 142 -69 648 -3 253 -3 509 2 568 l7 108 178 -3 178 -3 39 -31 c78 -63 161
-179 358 -504 330 -544 650 -974 844 -1136 79 -66 236 -146 346 -176 73 -20
103 -22 365 -23 343 0 366 4 440 77 61 59 70 80 70 155 0 54 -2 58 -52 108
l-53 52 -85 6 c-178 12 -291 72 -428 228 -218 246 -810 1066 -1037 1434 -11
19 -9 23 24 44 360 233 519 423 598 716 25 94 27 113 27 320 1 216 0 222 -28
305 -38 115 -65 165 -134 251 -157 198 -411 364 -646 424 -183 46 -281 55
-592 53 -159 -1 -579 -5 -934 -8z m858 -446 c114 -20 236 -66 334 -125 102
-62 116 -74 191 -174 191 -255 222 -537 88 -810 -22 -44 -60 -101 -85 -127
-107 -112 -332 -178 -608 -178 -171 0 -224 11 -232 48 -3 15 -8 221 -12 457
-8 518 9 862 45 898 5 5 26 15 47 23 43 15 96 13 232 -12z"/>
<path d="M4300 6899 c-14 -6 -44 -30 -67 -54 -40 -41 -43 -47 -43 -100 0 -53
3 -59 43 -99 55 -57 72 -65 161 -76 132 -17 263 -75 291 -130 8 -16 19 -59 25
-97 15 -104 33 -1503 26 -2083 -8 -662 -20 -862 -62 -993 -19 -58 -49 -75
-213 -117 -28 -7 -61 -28 -92 -57 -49 -45 -49 -46 -49 -109 0 -62 1 -65 43
-107 66 -68 96 -72 427 -61 151 5 469 7 707 6 305 -3 442 -1 467 8 19 6 55 33
80 60 42 45 46 53 46 100 0 47 -4 55 -47 102 -61 64 -88 76 -204 83 -108 8
-191 28 -233 58 -55 39 -93 163 -116 382 -6 55 -14 278 -17 495 l-6 394 565
-569 c559 -564 675 -684 791 -820 77 -91 246 -264 272 -278 26 -15 915 -22
1016 -8 66 9 74 13 115 56 42 43 44 48 44 106 0 59 -1 61 -49 109 -53 53 -92
68 -229 90 -158 26 -309 126 -614 407 -229 211 -1428 1401 -1428 1417 0 7 77
77 171 157 95 79 220 185 279 234 58 50 173 146 255 215 82 69 267 224 410
345 374 316 439 367 586 455 103 62 161 89 268 125 124 41 141 50 189 96 51
50 52 52 52 109 0 56 -1 58 -54 108 l-54 51 -724 0 -724 -1 -47 -45 c-47 -44
-47 -45 -47 -109 0 -64 1 -66 48 -113 43 -43 54 -49 129 -63 44 -9 97 -24 117
-32 33 -14 35 -17 26 -43 -38 -106 -385 -462 -846 -864 -148 -129 -368 -311
-461 -383 l-63 -47 1 103 c2 395 19 891 33 973 19 101 49 200 71 233 9 12 55
40 102 62 112 52 173 112 173 170 0 53 -14 78 -67 123 l-44 37 -702 -1 c-441
0 -711 -4 -727 -10z"/>
</g>
</svg>
